<svg width="1920" height="1080" viewBox="0 0 1920 1080" fill="none" xmlns="http://www.w3.org/2000/svg">
<g clip-path="url(#clip0_55_1854)">
<rect width="1920" height="1080" fill="white"/>
<path d="M1735 100.472C1731.35 109.258 1720.78 107.428 1714.97 113.695C1711.76 117.166 1710.02 121.19 1707.1 124.787C1705.16 127.181 1699.33 129.424 1705.77 133.472C1710.11 131.216 1717.44 124.686 1722.37 125.601C1725.64 142.108 1730.83 124.825 1739.3 126.09C1743.05 122.055 1755.28 108.719 1761.37 110.148C1761.28 116.314 1753.64 119.122 1754.81 125.965C1757.86 121.491 1762.46 120.763 1767.24 122.669C1766.92 124.06 1767.79 126.178 1767.48 127.582C1768.9 127.268 1770.98 128.133 1772.4 127.807C1772.42 140.291 1782.27 125.677 1785.59 123.834C1790.23 121.265 1804.23 116.302 1802.04 126.842C1804.83 125.89 1807.9 124.022 1811.38 124.862C1811.65 127.218 1813.02 128.409 1813.83 130.502C1814.55 130.577 1832.7 124.912 1826.82 132.896C1823.21 137.809 1814.58 128.735 1811.33 138.674C1810.26 136.33 1807.41 134.976 1804.27 135.653L1803.28 132.971C1798.27 132.407 1794.74 134.45 1793.15 138.837L1788.84 135.879C1787.21 139.589 1786.68 144.627 1782.2 145.993C1782.29 144.201 1781.21 142.722 1781.18 141.005C1770.44 144.164 1767.34 159.567 1761.55 168.741C1773.43 173.329 1770.48 161.472 1775.52 155.945C1773.04 160.357 1770.83 170.809 1770.29 176.236C1769.96 179.57 1771.4 180.724 1770.88 184.333C1770.54 186.727 1768.7 188.908 1768.27 191.114C1766.88 198.258 1769.91 201.141 1771.79 207.157C1773.28 211.882 1771.46 219.264 1775.62 223.162C1778.58 225.932 1787.15 226.947 1790.36 224.24C1794.08 221.106 1794.64 212.383 1794.57 207.871C1794.47 200.79 1789.53 197.869 1788.69 191.69C1787.97 186.376 1790.92 180.586 1790.9 174.77C1790.87 167.3 1791.84 165.621 1796.89 160.758L1795.45 159.931C1795.85 153.827 1802.49 153.288 1805.67 149.026C1798.59 141.82 1810.69 143.487 1813.68 143.888C1816.85 144.339 1819.53 143.775 1822.52 144.74C1821.26 144.326 1829.99 150.017 1828.99 148.437C1830.67 151.082 1829.28 154.078 1829.88 157.111C1830.23 158.928 1832.82 161.673 1832.85 162.964C1833 169.732 1825.15 172.088 1827.06 179.056C1834.73 184.997 1833.59 170.91 1840.79 171.211C1841.07 176.726 1844.64 180.247 1846.08 185.035C1847.52 189.86 1846.93 196.065 1846.67 201.141C1840.76 201.078 1836.24 221.595 1841.62 225.556C1844.74 227.837 1854.16 227.636 1857.84 226.295C1865.05 223.701 1862.08 220.542 1865.85 215.93C1867.82 213.524 1912.26 188.068 1895.46 182.002C1895.59 172.188 1915.62 176.287 1921.79 174.607C1924.76 173.805 1932.54 169.306 1933.61 166.674C1935.34 162.487 1931.92 159.091 1934.94 155.03L1932.17 154.767C1932.61 149.891 1934.97 150.117 1937.28 147.021C1940.51 142.697 1941.64 138.16 1945.31 134.35C1949.67 129.838 1954.77 130.702 1960.77 128.985C1969.34 126.516 1986.56 122.919 1992.93 117.242C1995.03 115.387 1994.44 112.617 1996.81 110.774C1999.41 108.744 2001.15 112.278 2003.47 109.308C2005.81 106.35 2004.17 95.2328 2004.32 91.6482C2004.71 82.3233 2010.25 70.9556 2013.85 62.3577C2021.75 62.6836 2030.64 54.0354 2036.35 63.8617C2038.27 67.1454 2037.56 73.6879 2038.54 77.0845C2039.88 81.7219 2042.31 85.0932 2042.51 90.1066C2048.43 87.6375 2051.75 92.3502 2055.47 95.4961C2060.67 99.8577 2063.32 99.5069 2057.84 106.325C2054.69 110.211 2050.51 112.917 2045.93 115.775C2043.6 117.229 2040.31 116.477 2038.52 118.67C2037 120.525 2038.52 123.947 2037.43 126.228C2034.22 132.908 2029.38 128.672 2024.18 132.984C2022.43 134.438 2015.88 144.702 2015.34 147.548C2013.58 156.76 2022.95 153.263 2023.32 158.59C2023.61 162.813 2014.11 162.538 2015.34 169.556C2018.37 168.529 2023.51 168.127 2026.44 170.145C2028.59 171.624 2026.2 180.373 2032 174.031C2030.6 172.276 2031.36 171.023 2030.74 169.005C2035.16 168.616 2039.82 172.815 2037.29 177.753C2035.4 181.4 2030.37 180.047 2028.43 184.333L2030.64 183.594C2025.47 186.326 2022.54 179.357 2016.75 180.786C2018.17 182.767 2020.11 185.674 2019.48 188.645C2010.94 188.795 2009.91 191.314 2003.26 195.162C1998.59 197.857 1985.38 197.819 1987.36 206.292C1997.38 208.297 2005.04 194.861 2015.66 197.706C2010.99 205.064 1990.08 218.575 1982.1 212.96C1974.79 215.592 1980.27 222.021 1985.67 221.959C1986.24 233.502 1981.33 242.889 1976.21 252.114C1976.17 250.723 1975.78 249.545 1976.28 247.602C1973.98 245.822 1971.33 245.283 1968.24 244.77C1967.8 248.166 1971.56 254.708 1973.4 257.767C1983.63 256.426 1975.73 268.683 1974.9 273.346C1974.57 275.226 1975.71 277.331 1974.94 279.437C1974.3 281.179 1972 280.979 1971.26 282.357C1969.5 285.591 1969.22 288.774 1968.73 292.384C1962.64 290.04 1975.26 266.515 1960.15 269.561C1960.63 266.102 1962.5 264.184 1961.4 260.938L1959.41 260.737C1959.69 255.874 1959.37 248.492 1955.62 245.321C1951.6 246.223 1952.64 248.241 1951.9 249.971C1952.88 247.69 1951.42 257.002 1951.4 255.874C1951.49 258.857 1953.99 266.29 1952.61 268.934C1954.58 271.027 1957.93 272.318 1959.37 274.825C1959.91 275.74 1958.03 277.808 1958.55 279.249L1961.56 281.956C1961.86 283.874 1959.76 288.649 1959.98 289.514C1961.24 294.314 1962.69 291.356 1965.92 293.211C1968.66 294.778 1975.78 299.165 1975.32 304.404C1974.8 310.156 1965.56 309.38 1966.02 315.909C1970.28 317.815 1977.39 312.312 1979.19 318.178C1981.63 326.136 1969.48 324.282 1966.03 326.5C1969.03 328.643 1969.35 332.14 1967.49 335.01C1971.36 334.446 1977.31 337.943 1972.39 341.603C1970.18 343.257 1965.78 339.272 1961.66 343.395C1960.65 344.398 1960.8 347.807 1959.51 349.336C1958.5 350.502 1956.61 350.64 1955.48 351.88C1952.33 355.302 1949.8 356.768 1950.47 362.358L1952.68 363.085C1947.59 360.403 1943.18 364.313 1939.3 368.036C1934 373.124 1935.71 375.857 1932.81 381.459C1928.8 389.193 1920.87 393.704 1915 400.422C1909.98 406.175 1902.64 417.631 1901.95 424.888C1901.17 433.022 1905.15 447.122 1908.57 454.291C1910.84 459.041 1915.01 464.606 1918.1 469.056C1921 473.254 1926.29 475.021 1928.43 479.308C1930.78 484.02 1928.86 490.601 1931.35 495.489C1934.33 501.317 1941.05 503.773 1943.16 510.228C1944.57 514.527 1946.33 521.784 1945.9 526.396C1945.61 529.542 1943.89 539.807 1942.24 542.439C1933.37 556.502 1924.41 533.239 1916.03 537.325C1916.34 532.124 1913.01 531.698 1910.62 528.038C1908.42 524.641 1908.4 522.06 1906.98 517.685C1903.17 518.726 1894.78 515.705 1892.39 511.519C1888.88 505.39 1895.92 503.147 1895.21 497.08C1892.9 497.494 1891.15 499.387 1890.17 502.056C1884.77 500.327 1890.38 484.334 1890.04 478.706C1884.61 477.603 1884.58 472.565 1880.77 469.557C1877.83 467.226 1872.14 466.273 1868.67 463.867C1864.63 461.084 1862.82 457.111 1857.23 458.139C1855.12 458.528 1850.6 465.045 1846.79 465.935C1837.97 467.965 1840.69 460.796 1835.01 457.399C1830.72 454.805 1822.91 457.161 1818.11 456.497C1811.32 455.557 1810.81 456.334 1804.91 458.189C1798.72 460.132 1794.34 460.508 1792.39 453.627C1790.01 455.156 1791.27 458.678 1789.65 459.681C1787.25 461.147 1785.21 459.342 1782.8 459.468C1777.1 459.743 1775.36 461.686 1770.9 462.952C1767.87 463.804 1741.32 460.696 1750.45 469.845C1753.37 466.699 1758.66 464.995 1762.96 466.812C1769.97 469.808 1764.19 470.259 1766.77 476.25C1773.18 476.713 1780.49 479.822 1774.72 487.317C1771.79 484.697 1767.56 485.299 1764.41 483.005C1761.54 480.9 1761.12 474.119 1756.98 478.606C1758.65 480.624 1758.66 482.554 1758.42 485.086C1756.47 484.121 1754.31 484.284 1752.03 483.845C1752.23 485.073 1751.57 486.828 1751.81 488.031C1748.94 487.68 1744.03 488.219 1741.46 486.84C1738.09 485.011 1738.3 482.93 1735.76 480.812C1732.31 477.917 1718.23 471.287 1720.16 480.712C1713.54 478.456 1705.28 482.767 1701.2 475.184C1698.39 477.265 1696.3 476.413 1693.09 477.114C1688.91 478.017 1688.01 478.418 1684.25 480.098C1680.03 481.978 1672.62 486.577 1672.37 477.967C1667.77 477.478 1669.12 480.574 1668.26 483.569C1667.28 486.928 1669.45 487.116 1666.43 490.914C1664.11 493.822 1653.17 502.457 1649.83 502.006C1648.51 499.261 1648.51 500.201 1646.15 499.299L1645.97 499.863C1649.68 499.136 1638.94 505.967 1640.09 504.851C1638.43 506.468 1638.57 508.636 1636.65 510.403C1634.66 512.258 1630.73 513.023 1629.09 514.815C1626.49 517.673 1627.9 518.274 1626.9 521.984C1625.5 527.211 1623.98 531.936 1624.71 538.165C1625.06 541.286 1630.83 551.977 1629.14 554.396C1626.09 558.77 1605.25 549.545 1600.41 547.716C1595.87 545.998 1598.57 548.442 1595.31 544.757C1593.74 542.965 1592.56 541.135 1591.61 538.904C1589.63 534.192 1586.82 527.023 1588.6 522.097C1579.28 521.17 1578.62 512.722 1576.33 505.641C1573.86 498.058 1569.25 494.574 1565.28 487.981C1563.48 484.998 1562.8 480.448 1559.99 477.842C1555.98 474.144 1555.98 476.15 1550.42 475.636C1541.75 474.846 1540.62 472.69 1532.17 476.5C1532.34 486.853 1522.99 492.343 1514.22 488.344C1503.72 483.569 1502.91 476.801 1500.44 466.799C1498.16 457.575 1492.07 453.075 1485.57 446.408C1482.7 443.45 1478.44 442.397 1476.13 438.875C1473.89 435.466 1475.23 429.575 1468.8 430.027L1468.07 429.3C1469.21 431.029 1445.24 426.216 1444.5 427.056C1442.54 429.274 1447.32 432.746 1444 435.403C1441.7 437.233 1438.76 435.002 1436.44 434.451C1430.8 433.097 1425.54 431.756 1419.53 431.468C1406.52 430.816 1395.65 432.809 1384.42 425.439C1374.72 419.06 1365.66 414.51 1355.53 409.459C1345.79 404.609 1332.55 399.871 1328.95 389.706C1315.93 388.942 1303.55 387.149 1290.95 386.523C1290.64 380.419 1291.43 375.205 1289.94 369.866L1286.6 362.935C1284.95 360.717 1282.27 359.914 1281.24 358.724C1279.99 357.245 1278.68 353.347 1277.78 352.62C1275.13 350.439 1274.44 351.68 1270.98 350.577C1264.39 348.484 1262.45 346.353 1260.55 339.685C1256.11 339.41 1246.86 340.625 1244.62 335.136C1243.48 332.341 1246.68 330.436 1246.75 327.779C1246.81 325.147 1245.48 322.126 1244.69 319.669C1243.18 314.982 1241.81 310.407 1240.12 305.682C1238.93 302.348 1233.78 296.132 1233.43 293.224C1232.56 286.368 1239.07 285.24 1235.13 278.484C1233.64 275.915 1231.1 277.407 1229.77 274.123C1228.8 271.767 1230.25 268.082 1230.56 266.001C1231.67 258.531 1231.07 258.519 1227.59 252.014C1225.16 247.452 1223.67 241.273 1221.88 236.397C1218.62 227.599 1217.67 212.508 1218.04 204.199C1218.49 193.771 1228.04 184.772 1229.08 174.056C1230.36 160.808 1229.08 151.634 1236.41 140.153C1242.61 130.452 1246.31 121.215 1249.69 110.035C1251.33 104.633 1253.01 99.9079 1254.8 94.6062C1256.73 88.8785 1255.83 83.4264 1256.98 77.6485C1258.09 72.2215 1258.79 66.807 1258.46 60.7534C1258.24 56.5171 1254.21 48.4831 1260.58 48.1321C1260.09 45.3748 1261.43 44.1215 1262.16 42.2916C1266.93 44.2594 1267.73 48.9721 1272.47 51.1654C1276.14 52.8825 1280.93 53.2083 1284.82 54.2611C1285.3 57.5449 1283.92 60.2519 1283.48 63.473L1283.6 61.6056L1287.78 60.6405C1288.17 53.4087 1293.03 45.7634 1288.19 39.7348C1298.53 36.8145 1309.46 43.3194 1318.75 46.6658C1329.87 50.6765 1342.33 52.5942 1353.84 55.2262C1397.2 65.1527 1441.09 72.7605 1485.26 78.0371C1507.33 80.6691 1529.5 82.7244 1551.69 84.1783C1572.06 85.5069 1591.34 91.009 1612.2 87.9258C1623.72 86.2213 1634.83 87.2366 1646.76 86.4971C1650.04 86.2966 1652.6 86.8103 1655.07 84.4666C1656.73 82.8874 1655.24 78.5008 1657.94 77.0845C1665.7 73.0111 1665.09 84.3666 1664.53 87.8634C1669 87.6629 1670.94 89.3298 1674.52 90.3575C1679.31 91.7362 1677.52 91.9365 1682.79 90.7458C1690.55 88.9912 1692.69 91.36 1698.99 97.6267C1703.77 89.4048 1705.28 98.7799 1707.97 99.5945C1712.21 100.873 1714.57 96.4362 1719.46 96.9125L1719.68 100.359C1722.88 100.058 1725.26 98.6171 1728.44 98.7925C1728.99 98.8176 1730.44 100.898 1732.06 101.211C1733.63 101.5 1735.62 101.249 1737.21 101.211L1735 100.472Z" fill="#CA1414"/>
<path d="M1487.27 591.308C1487.46 589.817 1487.12 589.504 1487.85 588.225C1488.44 587.198 1489.25 586.032 1487.74 585.205C1486.36 584.453 1485.66 585.744 1485.29 586.884C1484.74 588.526 1485.11 588.513 1483.49 588.99C1481.52 589.566 1479.46 591.183 1479.18 593.602C1478.87 596.359 1482.2 599.017 1483 595.445C1483.34 593.941 1482.34 591.847 1484.23 592.198C1486.06 592.537 1487.27 591.308 1487.27 591.308Z" fill="#CA1414"/>
<path d="M1520.89 581.832C1521.32 580.892 1522.39 580.29 1521.82 579.112L1520.6 578.172L1519.83 576.467L1516.93 575.527L1515.39 574.788L1513.56 575.227L1512.07 574.838L1510.8 575.728L1509.59 574.951L1508.37 576.054L1504.89 577.282L1503.75 578.285L1503.04 580.002L1501.8 581.105L1501.08 582.634C1500 583.912 1499.3 583.285 1499.85 585.153L1501.33 588.149C1502.43 588.838 1503.59 587.685 1504.74 588.224L1506.96 590.593C1508.01 591.307 1509.26 591.207 1510.5 591.307C1511.91 591.432 1512.45 591.696 1513.69 592.272L1516.51 592.385L1518.35 589.978C1519.12 589.164 1519.75 588.662 1519.83 587.484L1519.52 585.805L1520.89 581.832Z" fill="#CA1414"/>
<path d="M1592.14 620.335V619.784C1594.9 619.483 1592.11 617.941 1591.54 617.265C1590.67 616.199 1591.53 613.342 1589.25 614.069L1589.33 611.073L1586.49 611.324C1586 609.933 1587.03 609.13 1586.02 608.128L1584.59 607.401L1584.21 605.646C1583.44 604.405 1582.41 604.543 1582.03 602.926C1581.69 601.46 1581.92 600.771 1580.2 600.144C1577.33 599.104 1575.53 602.199 1573.98 604.155C1572.19 606.411 1569.77 605.408 1567.21 605.947L1565.69 606.335L1568.44 608.742C1568.83 609.932 1567.41 611.06 1568.24 612.138C1569.13 613.316 1570.34 612.527 1570.73 614.394C1571.17 616.538 1570.84 615.873 1572.67 616.876C1574.18 617.703 1573.04 618.819 1573.89 619.759L1577.45 618.819C1578.64 618.593 1580.37 618.744 1581.57 618.869L1584.9 619.47C1586.26 620.536 1585.88 627.166 1587.87 626.213C1589.46 625.461 1588.1 623.256 1588 622.203C1587.75 619.633 1589.81 621.488 1590.74 619.884L1591.51 622.353C1592.92 622.98 1592.47 620.699 1592.27 620.21L1592.14 620.335Z" fill="#CA1414"/>
<path d="M1632.16 624.647C1630.66 624.547 1629.24 625.011 1627.73 624.961C1626.2 624.898 1625.06 624.71 1623.87 624.058C1623.03 623.607 1621.85 622.893 1621.9 624.773C1620.61 624.973 1619.56 624.234 1618.25 624.184L1614.42 624.196L1613.56 622.767L1611.69 622.655C1609.65 622.956 1610.74 623.495 1610.59 625.074C1608.41 626.076 1606.21 629.31 1609.85 629.536C1611.46 629.636 1612.29 628.859 1613.79 628.608C1615.13 628.395 1616.44 628.909 1617.79 628.771C1619.32 628.621 1619.72 628.42 1621.12 629.273C1622.39 630.05 1623.39 630.526 1624.86 630.789L1628.95 631.228L1632.16 628.884C1632.89 628.383 1636.38 625.437 1634.3 625.55C1634.3 625.55 1633.44 624.723 1632.16 624.647Z" fill="#CA1414"/>
<path d="M1630.48 642.217C1630.16 639.697 1627.88 637.604 1625.43 637.329C1622.89 637.04 1620.2 635.599 1619.17 639.008C1618.54 641.089 1619.48 640.75 1620.86 640.851C1622.4 640.951 1622.79 641.552 1622.99 643.132L1623.63 645.237L1626.35 645.739C1626.35 645.739 1630.96 645.876 1630.48 642.217Z" fill="#CA1414"/>
<path d="M1643.17 655.216C1640.23 654.615 1644.48 652.559 1641.95 651.582C1640.62 651.08 1638.5 653.061 1637.39 653.725C1635.38 654.941 1634.82 657.385 1637.97 656.708L1640.57 655.831L1643.6 655.956V655.242L1643.17 655.216Z" fill="#CA1414"/>
<path d="M1641.79 643.909L1638.39 642.267C1636.81 641.215 1635.3 638.031 1635.67 636.101C1636.19 633.457 1638.85 631.326 1641.02 633.356C1642.96 635.136 1643.63 638.783 1647 637.216L1648.21 636.251L1650.19 636.452C1651.7 636.74 1652.3 636.414 1653.71 636.414C1655.56 636.402 1658.46 638.971 1659.67 640.087C1661.32 641.641 1665.14 641.716 1666.06 643.909C1667.03 646.203 1663.74 648.422 1662.37 649.675C1661.44 650.54 1661.04 650.891 1659.52 650.602C1657.9 650.289 1657.75 649.838 1656.19 650.665C1655.09 651.254 1654.04 652.006 1652.82 652.344C1651.55 652.72 1650.39 652.345 1649.13 652.482C1647.67 652.658 1647.39 653.473 1646.99 651.542C1646.75 650.389 1646.99 648.91 1646.99 647.732C1646.99 645.226 1645.54 642.681 1642.71 643.909C1642.71 643.909 1642.98 644.022 1641.79 643.909Z" fill="#CA1414"/>
<path d="M1718.08 704.498C1718.74 703.47 1718.23 702.054 1717.05 701.678C1715.04 701.026 1712.68 700.8 1711.64 698.945C1710.99 697.805 1711.67 696.213 1711.17 695.123L1709.98 694.17L1709.31 692.716C1708.07 691.889 1707.01 693.381 1705.82 692.942L1704.87 690.034C1705.64 688.956 1706.75 689.946 1706.24 687.979L1704.45 685.071L1701.39 682.589C1699.85 681.236 1698.86 679.594 1697.08 678.453C1695.47 677.426 1693.72 676.36 1691.97 675.583C1690.25 674.831 1687.67 673.34 1685.8 673.252C1684.24 673.177 1683.9 674.48 1682.44 674.292C1680.83 674.079 1680.1 672.688 1679.42 671.422L1678.73 670.081L1676.93 669.742C1675.67 669.204 1675.54 668.364 1673.89 668.176C1672.73 668.05 1671.34 667.85 1670.55 668.702C1669.7 669.617 1669.36 672.036 1669.6 673.214C1670.1 675.796 1675.19 677.438 1674.05 680.434L1671.89 682.426L1670.48 685.485L1669.45 686.863L1667.8 686.75L1665.48 689.608C1663.75 691.3 1661.85 692.942 1663.07 695.85C1663.59 697.103 1665.12 697.78 1665.78 698.945C1666.44 700.073 1666.69 701.502 1666.87 702.743C1667.09 704.26 1667.82 705.676 1668.95 706.704L1670.53 708.885C1671.32 711.153 1670.98 714.587 1669.88 716.68C1668.6 719.087 1668.11 722.421 1669.91 724.777C1671 726.218 1671.72 726.181 1673.28 726.306C1674.59 726.406 1675.53 727.096 1676.78 727.835L1680.19 729.941C1681.03 730.881 1681.1 732.209 1682.48 730.317L1684.08 726.92C1684.84 725.504 1685.64 725.065 1686.88 724.125C1688.16 723.135 1687.67 722.107 1688.51 720.917C1689.31 719.764 1691.01 719.501 1692.19 718.924C1693.96 718.072 1693.16 717.182 1694.17 716.016L1698.14 714.337C1700.44 713.61 1703.39 714.65 1705.55 713.622C1706.76 713.046 1707.63 712.206 1709.07 711.968C1710.35 711.767 1711.96 712.093 1712.7 710.715L1713.47 708.145L1716.06 706.391L1718.08 704.498Z" fill="#CA1414"/>
<path d="M1330.61 472.064C1323.67 472.916 1319.38 463.842 1312.38 465.396C1308.89 466.174 1307.87 469.708 1303.58 469.858C1299.72 469.983 1298.66 467.076 1295.74 466.662C1292.18 466.174 1289.76 469.407 1286.04 468.642C1282.32 467.878 1282.28 464.018 1277.09 466.123C1274.24 467.289 1272.36 471.613 1268.84 470.986C1263.89 470.096 1265.68 464.908 1265.43 461.674C1259.9 459.443 1255.48 461.812 1251.16 464.97C1248.49 457.864 1245.48 463.704 1241.9 465.923C1241.3 463.241 1242.63 460.684 1243.39 458.34C1236.35 456.548 1236.76 464.055 1232.33 465.873C1230.38 466.675 1228.33 463.767 1226.35 464.845C1223.58 466.361 1225.45 469.056 1224.71 471.5C1222.52 478.845 1221.61 473.318 1217.54 473.167C1212.49 472.992 1208.68 477.604 1207.04 481.439C1204.37 487.681 1201.64 499.963 1192.17 499.65C1188.52 499.512 1182.36 494.888 1181.68 502.959C1181.34 506.845 1184.88 509.126 1182.87 513.851C1186.93 516.608 1190.6 515.204 1194.36 518.939C1197.69 522.248 1198.9 528.176 1203.21 530.132C1206.08 531.423 1206.72 529.931 1209.27 529.994C1212.63 530.081 1211.9 530.207 1214.65 531.636C1216.55 532.626 1218.11 533.453 1220.3 534.405C1222.68 535.421 1225.26 533.841 1224.07 538.165C1220.96 540.171 1217.67 540.108 1214.31 539.456C1213.53 541.387 1213.59 543.994 1214.15 545.899C1209.66 546.137 1202.32 546.726 1200.9 541.675L1199.42 541.487C1199.37 539.557 1199.31 537.526 1199.26 535.584C1194.83 534.757 1194.98 538.855 1192.18 539.406C1188.11 540.221 1187.42 536.173 1182.76 539.92C1181.52 540.923 1181.48 543.054 1179.92 544.219C1178.94 544.959 1176.81 544.971 1175.61 545.56C1173.2 546.751 1170.56 548.242 1168.94 550.386C1172.34 552.905 1176.58 551.915 1178.26 557.58C1179.89 563.094 1176.7 564.699 1182.25 568.058C1187.47 571.229 1188.49 569.148 1193.25 567.907C1198.33 566.579 1200.1 570.101 1204.31 570.301C1208.09 570.464 1210.11 565.877 1214.23 566.955C1220.75 568.66 1213.86 572.307 1214.2 576.33C1214.51 580.103 1219.48 581.168 1217.15 585.843C1215.3 589.54 1209.4 590.468 1208.07 585.818C1204.86 586.031 1201.03 592.285 1198.25 594.591C1190.16 583.8 1193.62 605.382 1186.22 601.798C1183.54 607.162 1178.54 613.529 1177.35 619.282C1182.83 618.392 1180.77 622.841 1181.69 625.987C1183.14 630.913 1183.66 629.635 1188.77 629.384C1188.92 632.73 1186.21 633.583 1185.55 636.478C1184.51 641.053 1185.69 638.909 1188.18 642.544C1193.23 649.876 1192.55 645.991 1199.92 643.772C1206.57 641.779 1206.29 647.745 1206.35 652.897C1206.39 655.641 1206.59 656.043 1207.19 658.963C1207.77 661.658 1208.65 663.813 1207.67 666.696C1211.74 666.897 1213.19 662.948 1216.54 661.958C1220.15 660.893 1223.53 662.823 1226.22 664.741C1228.4 666.295 1231.35 671.032 1234.66 669.466C1237.84 667.962 1235.57 662.585 1238.48 660.128C1239.27 661.094 1241.13 663.224 1242.34 663.525C1244.24 664.014 1248.06 661.269 1249.03 664.064C1249.44 665.255 1244.45 671.998 1244.04 674.016C1243.69 675.733 1243.99 678.302 1243.46 680.057C1242.64 682.827 1241.82 682.526 1240.57 684.869C1238.84 688.116 1238.99 692.966 1235.75 695.009C1232.8 692.139 1220.74 703.407 1219.27 707.004C1222.48 708.232 1222.65 711.478 1219.2 712.481C1215.52 713.546 1214 709.448 1210.37 709.961C1205.12 710.688 1199.94 719.976 1194.94 722.558C1188.95 725.653 1183.47 728.824 1177.69 732.334C1173.38 734.941 1165.9 736.307 1163.38 741.784C1157.59 739.29 1156 741.019 1151.24 744.504C1147.53 747.211 1144.17 747.775 1140.34 749.705C1136.84 751.485 1134.12 755.395 1130.4 756.198C1127.17 756.874 1120.23 753.64 1120 759.431C1124.42 761.098 1129.11 758.052 1133.71 757.852C1140.06 757.563 1140.84 756.686 1145.71 752.751C1149.28 749.856 1152.76 750.369 1156.45 748.615C1160.48 746.697 1162.01 742.649 1166.25 741.295C1170.86 739.829 1174.06 740.531 1178.25 737.322C1180.58 735.53 1179.92 734.678 1182.8 733.575C1184.91 732.76 1187.35 733.023 1189.54 732.058C1191.52 731.181 1192.91 729.463 1194.95 728.749C1196.73 728.122 1199.4 728.223 1200.59 727.659C1204.24 725.879 1206.78 720.001 1210.93 719.336L1213.59 719.311L1213.76 721.342C1216.89 720.853 1220.37 717.858 1222.9 715.765C1226.2 713.045 1229.59 712.167 1232.96 709.711C1236.94 706.816 1235.87 703.732 1239.61 701.451C1241.43 700.336 1244.15 700.574 1245.82 698.97C1247.45 697.378 1247.06 694.896 1248.98 693.292C1250.52 692.013 1253.44 692.402 1254.64 691.237C1256.51 689.444 1255.74 687.514 1256.67 685.571C1259.26 680.119 1263.07 679.781 1267.2 676.334C1270.26 673.765 1270.99 669.478 1274.21 666.696C1277.93 663.475 1281.58 662.936 1277.67 657.973C1276.68 656.719 1275.64 656.055 1273.89 656.256C1272.98 651.919 1276.09 649.024 1278.33 645.866C1280.89 642.268 1280.84 639.21 1282.61 635.362C1284.7 630.813 1293.34 615.61 1298.62 616.061C1305.01 616.6 1301.33 620.586 1298.63 623.243C1297.07 624.797 1295.86 624.596 1294.75 627.09C1293.78 629.271 1294.87 631.364 1293.52 633.708C1290.94 638.245 1287.19 637.882 1287.44 643.208C1287.81 651.042 1291.04 646.054 1295.22 646.48C1295.54 649.839 1288.51 654.551 1291.29 657.597C1294.68 661.319 1301.1 653.198 1302.33 650.816C1304.61 646.392 1305.18 641.78 1309.52 638.546C1313.28 635.751 1319.64 637.242 1322.2 634.685C1326.76 630.061 1319.41 628.406 1319.14 624.759C1318.82 619.996 1325.52 618.768 1328.93 620.021C1332.79 621.463 1335.48 626.213 1339.31 627.792C1343.74 629.622 1349.64 628.381 1354.34 627.654C1360.81 626.652 1366.73 623.343 1373.11 626.539C1376.34 628.168 1375.72 629.635 1380.24 629.848C1383.27 629.998 1386.49 628.908 1389.66 629.647C1389.28 627.579 1388.81 625.925 1388.61 623.869C1393.23 622.791 1396.65 627.253 1398.44 630.951C1399.53 633.207 1398.25 635.074 1400.62 636.503C1402.06 637.355 1406.08 636.277 1407.83 636.478C1412.79 637.017 1412.89 639.498 1416.76 641.867C1420.84 644.361 1425.55 641.78 1428.22 646.392C1431.37 651.806 1428.84 652.922 1435.95 655.654C1440.74 657.496 1442.66 658.449 1446 662.372C1449.44 666.42 1451.43 667.072 1456.36 669.027C1461.24 670.945 1462.52 674.429 1466.17 677.425C1471.05 681.385 1479.26 681.373 1477.2 673.013C1476.39 669.641 1472.49 668.977 1476.76 666.119C1479.87 664.039 1483.42 666.784 1486.16 667.799C1493.45 670.506 1496.17 667.962 1494.54 659.627C1493.2 652.709 1487.34 652.433 1487.71 645.389C1477.03 644.838 1471.04 643.948 1462.54 637.431C1458.91 634.636 1454.65 632.968 1450.84 630.261C1446.73 627.341 1445.16 622.641 1441.48 619.921C1437.43 616.938 1433.75 618.756 1429.75 615.096C1426.64 612.251 1424.41 607.638 1419.97 610.108C1414.05 613.404 1414 631.151 1407.93 627.629C1406.43 626.752 1406.62 623.919 1405.06 622.679C1403.63 621.551 1400.67 621.613 1398.98 621.037C1394.89 619.658 1392.66 614.444 1388.04 614.319C1389.21 606.811 1381.8 614.432 1380.11 615.372C1375.91 617.69 1373.77 616.124 1371.57 612.614C1367.33 605.896 1367 596.383 1364.65 589.026C1361.55 579.363 1358.77 569.386 1355.03 559.911C1351.43 550.799 1346.48 541.863 1344.94 532.199C1343.2 521.383 1341.58 511.695 1338.45 501.179C1336.88 495.94 1336.76 490.576 1335.43 485.312C1334.27 480.687 1330.27 476.965 1330.61 472.064Z" fill="#CA1414"/>
<path d="M1287.58 664.603C1284.82 668.124 1282.92 670.117 1281.54 674.541C1280 679.517 1278.01 679.354 1275.45 682.876C1274.06 680.708 1271.37 679.48 1270.08 682.375C1268.5 685.897 1271.85 684.305 1273.11 686.812C1275.14 690.91 1273.23 696.663 1271.09 700.36C1276.99 701.789 1278.37 695.523 1279.86 691.65C1281.82 686.574 1284.76 684.167 1288.66 681.122C1295.32 675.958 1290.37 678.89 1288.56 672.9C1288.03 671.182 1290.37 668.074 1289.68 666.934C1288.09 664.276 1284.86 665.405 1283.17 667.36L1287.58 664.603Z" fill="#CA1414"/>
<path d="M5.94971 756.791C34.6043 691.999 172.644 417.485 259.906 466.808C344.774 521.534 206.278 717.27 5.94971 756.791Z" fill="#25282F"/>
<path d="M270.36 418.642C249.983 405 210.044 374.18 187.529 364.6C178.294 360.664 168.881 357.138 159.311 354.17C129.669 354.401 95.8766 336.085 66.15 342.548C66.15 342.548 10.7431 398.517 -182.271 668.916C-182.271 668.916 -197.437 716.779 -173.773 758.914C-173.773 758.914 -34.2028 795.131 78.0083 691.961C237.823 545.022 290.814 521.011 270.36 418.642Z" fill="#1B1D22"/>
<path d="M-169.384 749.114C-168.835 754.736 145.536 579.093 114.823 434.677C78.6004 264.34 -194.586 486.84 -169.384 749.114Z" fill="#33363E"/>
<path d="M-150.671 740.376C-88.5713 706.316 108.223 579.035 116.622 462.654C54.8923 382.711 -128.323 537.387 -150.671 740.376Z" fill="#25282F"/>
<path d="M270.36 418.641C262.913 384.217 272.632 357.185 288.242 306.84C303.84 256.489 278.158 213.983 229.975 194.822C187.502 177.929 167.921 206.877 167.921 206.877L162.587 220.299C163.664 223.284 164.164 226.444 164.166 229.622L165.784 230.075C180.501 235.924 171.426 258.757 156.709 252.908L154.987 252.021L152.701 254.226C155.459 258.866 157.363 268.761 137.927 282.35C110.473 301.549 71.8969 333.959 53.3208 356.686C34.7447 379.414 106.144 351.24 106.944 371.39C107.752 391.531 81.9924 434.173 137.583 421.752C193.178 409.332 175.17 402.909 198.816 439.48C222.458 476.049 229.385 456.767 243.645 430.123C257.912 403.48 284.724 485 270.36 418.641Z" fill="#D2D1C6"/>
<path d="M179.723 204.414C179.723 204.414 98.332 193.546 119.835 267.817C119.835 267.817 138.232 234.273 166.158 249.231L142.794 249.768C142.794 249.768 148.777 260.182 181.081 260.579C198.249 260.795 212.213 273.686 222 261.059C222 261.059 188.775 245.411 186.647 227.176C184.678 210.231 179.723 204.414 179.723 204.414Z" fill="#F9AA16"/>
<path d="M232.006 242.812C229.638 248.769 222.895 251.684 216.946 249.319C210.992 246.953 208.089 240.205 210.456 234.248C212.824 228.291 219.562 225.388 225.516 227.754C231.466 230.118 234.373 236.855 232.006 242.812Z" fill="#FBD542"/>
<path d="M226.319 240.553C225.202 243.362 222.015 244.74 219.207 243.624C216.395 242.506 215.023 239.316 216.139 236.507C217.256 233.698 220.443 232.32 223.255 233.437C226.064 234.553 227.435 237.744 226.319 240.553Z" fill="#25282F"/>
<path d="M175.304 217.898C174.47 219.996 172.093 221.026 169.989 220.19C167.884 219.354 166.864 216.973 167.698 214.875C168.536 212.765 170.907 211.746 173.012 212.582C175.116 213.419 176.142 215.788 175.304 217.898Z" fill="#363536"/>
<path d="M243.419 247.349C233.111 243.253 227.871 235.272 226.261 232.43C225.505 232.218 223.758 231.84 220.572 231.751C214.377 231.567 200.243 228.393 199.646 228.257C198.048 227.875 197.133 226.372 197.476 224.838C197.827 223.281 199.36 222.321 200.902 222.669C201.043 222.699 214.086 224.465 219.733 224.621C225.897 224.818 228.208 225.939 228.904 226.418L230.904 228.959C230.941 229.05 235.307 237.949 245.542 242.016L245.94 242.175C247.396 242.753 248.122 244.396 247.547 245.864C246.996 247.34 245.336 248.086 243.858 247.524L243.419 247.349Z" fill="#25282F"/>
<path d="M1461.66 654.113H1345.22V599.38H1461.66V654.113Z" fill="#F0EDEE"/>
<path d="M1365.86 636.64H1355.77V608.208H1365.86V636.64Z" fill="#BCBBB9"/>
<path d="M1386.54 636.64H1376.46V608.208H1386.54V636.64Z" fill="#BCBBB9"/>
<path d="M1407.25 636.64H1397.14V608.208H1407.25V636.64Z" fill="#BCBBB9"/>
<path d="M1427.91 636.64H1417.83V608.208H1427.91V636.64Z" fill="#BCBBB9"/>
<path d="M1448.59 636.64H1438.51V608.208H1448.59V636.64Z" fill="#BCBBB9"/>
<path d="M1471.31 601.391H1333.08V585.127H1471.31V601.391Z" fill="#959595"/>
<path d="M569.449 654.113H452.989V599.38H569.449V654.113Z" fill="#F0EDEE"/>
<path d="M473.626 636.64H463.568V608.208H473.626V636.64Z" fill="#BCBBB9"/>
<path d="M494.31 636.64H484.251V608.208H494.31V636.64Z" fill="#BCBBB9"/>
<path d="M514.993 636.64H504.935V608.208H514.993V636.64Z" fill="#BCBBB9"/>
<path d="M535.679 636.64H525.621V608.208H535.679V636.64Z" fill="#BCBBB9"/>
<path d="M556.363 636.64H546.305V608.208H556.363V636.64Z" fill="#BCBBB9"/>
<path d="M579.057 601.391H440.848V585.127H579.057V601.391Z" fill="#959595"/>
<path d="M141.52 627.503H115.228L126.918 456.319H129.829L141.52 627.503Z" fill="#BCBBB9"/>
<path d="M1801.98 627.503H1775.68L1787.37 456.319H1790.28L1801.98 627.503Z" fill="#BCBBB9"/>
<path d="M1.58301 1073.94H1917.23V645.703H1.58301V1073.94Z" fill="#BCBBB9"/>
<path d="M570.514 1073.94H1347.18V645.703H570.514V1073.94Z" fill="#E7E5E5"/>
<path d="M1917.23 733.635L1917.2 708.28H1917.23V733.635ZM1662.16 733.635H1347.19V708.28H1662.16V733.635ZM570.515 733.635H256.633V708.28H570.515V733.635Z" fill="#AFADAC"/>
<path d="M1347.18 733.635H1117.74V708.28H1347.18V733.635ZM801.067 733.635H570.514V708.28H801.067V733.635Z" fill="#D8D3D5"/>
<path d="M1917.23 946.791H1.58301V919.472H1917.23V946.791Z" fill="#E5E5E4"/>
<path d="M1.58301 708.279H1917.23V645.711H1.58301V708.279Z" fill="#E5E5E4"/>
<path d="M1.58301 665.878H1917.23V645.709H1.58301V665.878Z" fill="#CBBDAA"/>
<path d="M801.069 1073.94H1117.75V657.345H801.069V1073.94Z" fill="#F0EDEE"/>
<path d="M1076.8 937.696H848.068V708.275H1076.8V937.696Z" fill="#959595"/>
<path d="M935.941 937.696H911.613V708.275H935.941V937.696Z" fill="#BCBBB9"/>
<path d="M1007.2 937.696H982.871V708.275H1007.2V937.696Z" fill="#BCBBB9"/>
<path d="M1076.8 937.696H1052.47V708.275H1076.8V937.696Z" fill="#BCBBB9"/>
<path d="M872.635 937.696H848.307V708.275H872.635V937.696Z" fill="#BCBBB9"/>
<path d="M45.3442 673.073H1873.49V645.71H45.3442V673.073Z" fill="#959595"/>
<path d="M801.069 673.073H1117.75V645.71H801.069V673.073Z" fill="#8B8C8B"/>
<path d="M1.58301 1073.94H256.638V613.504H1.58301V1073.94Z" fill="#E7E5E5"/>
<path d="M256.631 692.911H1.58301V651.506H256.631V673.073V692.911Z" fill="#ADA9AA"/>
<path d="M223.666 937.696H39.6157V708.275H223.666V937.696Z" fill="#959595"/>
<path d="M110.235 937.696H90.6396V708.275H110.235V937.696Z" fill="#BCBBB9"/>
<path d="M167.6 937.696H148.028V708.275H167.6V937.696Z" fill="#BCBBB9"/>
<path d="M223.666 937.696H204.071V708.275H223.666V937.696Z" fill="#BCBBB9"/>
<path d="M59.2349 937.696H39.6157V708.275H59.2349V937.696Z" fill="#BCBBB9"/>
<path d="M959.419 964.756C939.752 964.756 923.801 980.712 923.801 1000.38V1071.07H995.036V1000.38C995.036 980.712 979.085 964.756 959.419 964.756Z" fill="#BCBBB9"/>
<path d="M1040.33 986.701C1030.58 986.701 1022.7 999.343 1022.7 1014.97V1071.07H1057.96V1014.97C1057.96 999.343 1050.06 986.701 1040.33 986.701Z" fill="#BCBBB9"/>
<path d="M878.502 986.701C868.776 986.701 860.871 999.343 860.871 1014.97V1071.07H896.11V1014.97C896.11 999.343 888.229 986.701 878.502 986.701Z" fill="#BCBBB9"/>
<path d="M1833.19 1071.07H1797.98V991.815H1833.19V1071.07Z" fill="#BCBBB9"/>
<path d="M85.646 814.504H66.5947V760.386H85.646V814.504Z" fill="#757E89"/>
<path d="M138.633 814.504H119.582V760.386H138.633V814.504Z" fill="#757E89"/>
<path d="M197.894 814.504H178.819V760.386H197.894V814.504Z" fill="#757E89"/>
<path d="M85.646 910.971H66.5947V856.853H85.646V910.971Z" fill="#757E89"/>
<path d="M138.633 910.971H119.582V856.853H138.633V910.971Z" fill="#757E89"/>
<path d="M197.894 910.971H178.819V856.853H197.894V910.971Z" fill="#757E89"/>
<path d="M307.751 814.504H277.956V760.386H307.751V814.504Z" fill="#757E89"/>
<path d="M307.751 910.971H277.956V856.853H307.751V910.971Z" fill="#757E89"/>
<path d="M384.191 814.504H354.396V760.386H384.191V814.504Z" fill="#757E89"/>
<path d="M384.191 910.971H354.396V856.853H384.191V910.971Z" fill="#757E89"/>
<path d="M460.633 814.504H430.861V760.386H460.633V814.504Z" fill="#757E89"/>
<path d="M460.633 910.971H430.861V856.853H460.633V910.971Z" fill="#757E89"/>
<path d="M537.098 814.504H507.326V760.386H537.098V814.504Z" fill="#757E89"/>
<path d="M537.098 910.971H507.326V856.853H537.098V910.971Z" fill="#757E89"/>
<path d="M613.539 814.504H583.791V760.386H613.539V814.504Z" fill="#757E89"/>
<path d="M613.539 910.971H583.791V856.853H613.539V910.971Z" fill="#757E89"/>
<path d="M690.003 814.504H660.231V760.386H690.003V814.504Z" fill="#757E89"/>
<path d="M690.003 910.971H660.231V856.853H690.003V910.971Z" fill="#757E89"/>
<path d="M766.445 814.504H736.696V760.386H766.445V814.504Z" fill="#757E89"/>
<path d="M766.445 910.971H736.696V856.853H766.445V910.971Z" fill="#757E89"/>
<path d="M1611.08 814.504H1640.88V760.386H1611.08V814.504Z" fill="#757E89"/>
<path d="M1611.08 910.971H1640.88V856.853H1611.08V910.971Z" fill="#757E89"/>
<path d="M1534.62 814.504H1564.41V760.386H1534.62V814.504Z" fill="#757E89"/>
<path d="M1534.62 910.971H1564.41V856.853H1534.62V910.971Z" fill="#757E89"/>
<path d="M1458.18 814.504H1487.97V760.386H1458.18V814.504Z" fill="#757E89"/>
<path d="M1458.18 910.971H1487.97V856.853H1458.18V910.971Z" fill="#757E89"/>
<path d="M1381.71 814.504H1411.49V760.386H1381.71V814.504Z" fill="#757E89"/>
<path d="M1381.71 910.971H1411.49V856.853H1381.71V910.971Z" fill="#757E89"/>
<path d="M1305.27 814.504H1335.04V760.386H1305.27V814.504Z" fill="#757E89"/>
<path d="M1305.27 910.971H1335.04V856.853H1305.27V910.971Z" fill="#757E89"/>
<path d="M1228.81 814.504H1258.58V760.386H1228.81V814.504Z" fill="#757E89"/>
<path d="M1228.81 910.971H1258.58V856.853H1228.81V910.971Z" fill="#757E89"/>
<path d="M1152.37 814.504H1182.14V760.386H1152.37V814.504Z" fill="#757E89"/>
<path d="M1152.37 910.971H1182.14V856.853H1152.37V910.971Z" fill="#757E89"/>
<path d="M146.704 1071.07H111.537V991.815H146.704V1071.07Z" fill="#BCBBB9"/>
<path d="M141.357 978.749H116.863V959.195H141.357V978.749Z" fill="#BCBBB9"/>
<path d="M61.6722 978.749H37.1782V959.195H61.6722V978.749Z" fill="#BCBBB9"/>
<path d="M61.6722 1035.47H37.1782V991.816H61.6722V1035.47Z" fill="#BCBBB9"/>
<path d="M226.102 978.749H201.608V959.195H226.102V978.749Z" fill="#BCBBB9"/>
<path d="M226.102 1035.47H201.608V991.816H226.102V1035.47Z" fill="#BCBBB9"/>
<path d="M312.009 978.749H287.539V959.195H312.009V978.749Z" fill="#757E89"/>
<path d="M312.009 1035.47H287.539V991.816H312.009V1035.47Z" fill="#757E89"/>
<path d="M388.5 978.749H363.982V959.195H388.5V978.749Z" fill="#757E89"/>
<path d="M388.5 1035.47H363.982V991.816H388.5V1035.47Z" fill="#757E89"/>
<path d="M464.942 978.749H440.448V959.195H464.942V978.749Z" fill="#757E89"/>
<path d="M464.942 1035.47H440.448V991.816H464.942V1035.47Z" fill="#757E89"/>
<path d="M534.471 978.749H509.953V959.195H534.471V978.749Z" fill="#757E89"/>
<path d="M534.471 1035.47H509.953V991.816H534.471V1035.47Z" fill="#757E89"/>
<path d="M622.2 978.749H597.682V959.195H622.2V978.749Z" fill="#757E89"/>
<path d="M622.2 1035.47H597.682V991.816H622.2V1035.47Z" fill="#757E89"/>
<path d="M694.311 978.749H669.793V959.195H694.311V978.749Z" fill="#757E89"/>
<path d="M694.311 1035.47H669.793V991.816H694.311V1035.47Z" fill="#757E89"/>
<path d="M766.396 978.749H741.925V959.195H766.396V978.749Z" fill="#757E89"/>
<path d="M766.396 1035.47H741.925V991.816H766.396V1035.47Z" fill="#757E89"/>
<path d="M1606.8 978.749H1631.27V959.195H1606.8V978.749Z" fill="#757E89"/>
<path d="M1606.8 1035.47H1631.27V991.816H1606.8V1035.47Z" fill="#757E89"/>
<path d="M1530.34 978.749H1554.83V959.195H1530.34V978.749Z" fill="#757E89"/>
<path d="M1530.34 1035.47H1554.83V991.816H1530.34V1035.47Z" fill="#757E89"/>
<path d="M1453.87 978.749H1478.37V959.195H1453.87V978.749Z" fill="#757E89"/>
<path d="M1453.87 1035.47H1478.37V991.816H1453.87V1035.47Z" fill="#757E89"/>
<path d="M1384.36 978.749H1408.86V959.195H1384.36V978.749Z" fill="#757E89"/>
<path d="M1384.36 1035.47H1408.86V991.816H1384.36V1035.47Z" fill="#757E89"/>
<path d="M1296.63 978.749H1321.13V959.195H1296.63V978.749Z" fill="#757E89"/>
<path d="M1296.63 1035.47H1321.13V991.816H1296.63V1035.47Z" fill="#757E89"/>
<path d="M1224.52 978.749H1249.02V959.195H1224.52V978.749Z" fill="#757E89"/>
<path d="M1224.52 1035.47H1249.02V991.816H1224.52V1035.47Z" fill="#757E89"/>
<path d="M1152.41 978.749H1176.88V959.195H1152.41V978.749Z" fill="#757E89"/>
<path d="M1152.41 1035.47H1176.88V991.816H1152.41V1035.47Z" fill="#757E89"/>
<path d="M1662.16 1073.94H1917.2V613.504H1662.16V1073.94Z" fill="#DAD0C1"/>
<path d="M1662.16 1073.94H1917.2V613.504H1662.16V1073.94Z" fill="#E7E5E5"/>
<path d="M1917.23 665.878L1917.2 651.508V665.878" fill="#988C82"/>
<path d="M1917.2 692.911H1662.16V651.506H1917.2V665.876V692.911Z" fill="#ADA9AA"/>
<path d="M1808.6 937.696H1828.17V708.275H1808.6V937.696Z" fill="#BCBBB9"/>
<path d="M1751.21 937.696H1770.8V708.275H1751.21V937.696Z" fill="#BCBBB9"/>
<path d="M1695.15 937.696H1714.74V708.275H1695.15V937.696Z" fill="#BCBBB9"/>
<path d="M1859.58 937.696H1879.17V708.275H1859.58V937.696Z" fill="#BCBBB9"/>
<path d="M1833.17 814.504H1852.22V760.386H1833.17V814.504Z" fill="#757E89"/>
<path d="M1780.15 814.504H1799.23V760.386H1780.15V814.504Z" fill="#757E89"/>
<path d="M1720.92 814.504H1739.97V760.386H1720.92V814.504Z" fill="#757E89"/>
<path d="M1833.17 910.971H1852.22V856.853H1833.17V910.971Z" fill="#757E89"/>
<path d="M1780.15 910.971H1799.23V856.853H1780.15V910.971Z" fill="#757E89"/>
<path d="M1720.92 910.971H1739.97V856.853H1720.92V910.971Z" fill="#757E89"/>
<path d="M1771.23 1071.07H1806.42V991.815H1771.23V1071.07Z" fill="#BCBBB9"/>
<path d="M1779.02 978.749H1798.64V959.195H1779.02V978.749Z" fill="#BCBBB9"/>
<path d="M1857.12 978.749H1881.61V959.195H1857.12V978.749Z" fill="#BCBBB9"/>
<path d="M1857.12 1035.47H1881.61V991.816H1857.12V1035.47Z" fill="#BCBBB9"/>
<path d="M1692.68 978.749H1717.18V959.195H1692.68V978.749Z" fill="#BCBBB9"/>
<path d="M1692.68 1035.47H1717.18V991.816H1692.68V1035.47Z" fill="#BCBBB9"/>
<path d="M904.464 814.504H880.679V760.386H904.464V814.504Z" fill="#757E89"/>
<path d="M971.323 814.504H947.515V760.386H971.323V814.504Z" fill="#757E89"/>
<path d="M1040.99 814.504H1017.16V760.386H1040.99V814.504Z" fill="#757E89"/>
<path d="M904.464 908.079H880.679V853.985H904.464V908.079Z" fill="#757E89"/>
<path d="M971.323 908.079H947.515V853.985H971.323V908.079Z" fill="#757E89"/>
<path d="M1040.99 908.079H1017.16V853.985H1040.99V908.079Z" fill="#757E89"/>
<path d="M1925.77 1123.18H-6.05859V1071.08H1925.77V1123.18Z" fill="#959595"/>
<path d="M965.381 236.511H953.454V164.164H965.381V236.511Z" fill="#DEDDDB"/>
<path d="M1007.89 337.668C1009 334.993 1009.66 332.2 1009.66 329.288C1009.66 311.532 987.178 297.139 959.418 297.139C931.657 297.139 909.175 311.532 909.175 329.288C909.175 332.2 909.814 334.993 910.95 337.668H1007.89Z" fill="#D3D2D0"/>
<path d="M974.469 313.447H944.342V255.139H974.469V313.447Z" fill="#D3D2D0"/>
<path d="M1119.64 645.705H799.174V536.12H1119.64V645.705Z" fill="#E7E5E5"/>
<path d="M1119.64 645.705H799.174V621.818H1119.64V645.705Z" fill="#BCBBB9"/>
<path d="M1119.64 560.011H799.174V536.124H1119.64V560.011Z" fill="#BCBBB9"/>
<path d="M829.137 612.684H813.683V569.858H829.137V612.684Z" fill="#BCBBB9"/>
<path d="M854.411 612.684H838.98V569.858H854.411V612.684Z" fill="#BCBBB9"/>
<path d="M879.711 612.684H864.258V569.858H879.711V612.684Z" fill="#BCBBB9"/>
<path d="M904.986 612.684H889.556V569.858H904.986V612.684Z" fill="#BCBBB9"/>
<path d="M930.261 612.684H914.807V569.858H930.261V612.684Z" fill="#BCBBB9"/>
<path d="M955.558 612.684H940.08V569.858H955.558V612.684Z" fill="#BCBBB9"/>
<path d="M980.836 612.684H965.382V569.858H980.836V612.684Z" fill="#BCBBB9"/>
<path d="M1006.11 612.684H990.658V569.858H1006.11V612.684Z" fill="#BCBBB9"/>
<path d="M1031.41 612.684H1015.93V569.858H1031.41V612.684Z" fill="#BCBBB9"/>
<path d="M1056.68 612.684H1041.23V569.858H1056.68V612.684Z" fill="#BCBBB9"/>
<path d="M1081.94 612.684H1066.51V569.858H1081.94V612.684Z" fill="#BCBBB9"/>
<path d="M1107.23 612.684H1091.78V569.858H1107.23V612.684Z" fill="#BCBBB9"/>
<path d="M1084.73 536.125H834.105V450.426H1084.73V536.125Z" fill="#E7E5E5"/>
<path d="M1084.73 536.125H834.105V517.446H1084.73V536.125Z" fill="#BCBBB9"/>
<path d="M1084.73 469.104H834.105V450.426H1084.73V469.104Z" fill="#BCBBB9"/>
<path d="M857.534 510.292H845.441V476.794H857.534V510.292Z" fill="#BCBBB9"/>
<path d="M877.294 510.292H865.225V476.794H877.294V510.292Z" fill="#BCBBB9"/>
<path d="M897.08 510.292H884.987V476.794H897.08V510.292Z" fill="#BCBBB9"/>
<path d="M916.843 510.292H904.749V476.794H916.843V510.292Z" fill="#BCBBB9"/>
<path d="M936.626 510.292H924.533V476.794H936.626V510.292Z" fill="#BCBBB9"/>
<path d="M956.389 510.292H944.295V476.794H956.389V510.292Z" fill="#BCBBB9"/>
<path d="M976.172 510.292H964.079V476.794H976.172V510.292Z" fill="#BCBBB9"/>
<path d="M995.935 510.292H983.841V476.794H995.935V510.292Z" fill="#BCBBB9"/>
<path d="M1015.72 510.292H1003.62V476.794H1015.72V510.292Z" fill="#BCBBB9"/>
<path d="M1035.48 510.292H1023.39V476.794H1035.48V510.292Z" fill="#BCBBB9"/>
<path d="M1055.24 510.292H1043.17V476.794H1055.24V510.292Z" fill="#BCBBB9"/>
<path d="M1075 510.292H1062.93V476.794H1075V510.292Z" fill="#BCBBB9"/>
<path d="M1086.79 450.423C1088.87 440.93 1089.7 431.176 1088.68 421.186C1082.86 363.635 1025.21 320.62 959.417 320.62C893.602 320.62 835.952 363.635 830.154 421.186C829.136 431.176 829.941 440.93 832.047 450.423H1086.79Z" fill="#E7E5E5"/>
<path d="M829.822 431.815C829.964 438.113 830.698 444.339 832.047 450.423H1086.79C1088.11 444.339 1088.85 438.113 1088.99 431.815H829.822Z" fill="#BCBBB9"/>
<path d="M938.898 256.326H979.911C981.378 254.314 982.301 252.112 982.301 249.745C982.301 241.435 972.054 234.712 959.416 234.712C946.755 234.712 936.507 241.435 936.507 249.745C936.507 252.112 937.43 254.314 938.898 256.326Z" fill="#BCBBB9"/>
<path d="M972.74 168.376C972.74 175.738 966.777 181.704 959.417 181.704C952.033 181.704 946.069 175.738 946.069 168.376C946.069 160.99 952.033 155 959.417 155C966.777 155 972.74 160.99 972.74 168.376Z" fill="#BCBBB9"/>
<path d="M972.74 208.506C972.74 215.868 966.777 221.834 959.417 221.834C952.033 221.834 946.069 215.868 946.069 208.506C946.069 201.12 952.033 195.154 959.417 195.154C966.777 195.154 972.74 201.12 972.74 208.506Z" fill="#BCBBB9"/>
<path d="M979.912 263.544H938.898V255.684H979.912V263.544Z" fill="#E7E5E5"/>
</g>
<defs>
<clipPath id="clip0_55_1854">
<rect width="1920" height="1080" fill="white"/>
</clipPath>
</defs>
</svg>
